<svg width="24" height="24" viewBox="0 0 24 24" fill="none" xmlns="http://www.w3.org/2000/svg">
<path d="M12 1C9.82441 1 7.69767 1.64514 5.88873 2.85383C4.07979 4.06253 2.66989 5.78049 1.83733 7.79048C1.00477 9.80047 0.786929 12.0122 1.21137 14.146C1.6358 16.2798 2.68345 18.2398 4.22183 19.7782C5.76021 21.3165 7.72022 22.3642 9.85401 22.7886C11.9878 23.2131 14.1995 22.9952 16.2095 22.1627C18.2195 21.3301 19.9375 19.9202 21.1462 18.1113C22.3549 16.3023 23 14.1756 23 12C23 9.08262 21.8411 6.28472 19.7782 4.22182C17.7153 2.15893 14.9174 1 12 1ZM11.9412 20.2978C10.2953 20.2978 8.68643 19.8098 7.31797 18.8954C5.9495 17.981 4.88291 16.6814 4.25307 15.1608C3.62324 13.6402 3.45844 11.9671 3.77953 10.3528C4.10062 8.73863 4.89317 7.25588 6.05695 6.09209C7.22074 4.92831 8.70349 4.13576 10.3177 3.81467C11.9319 3.49359 13.6051 3.65838 15.1257 4.28822C16.6462 4.91805 17.9459 5.98464 18.8602 7.35311C19.7746 8.72157 20.2627 10.3305 20.2627 11.9763C20.2627 13.0691 20.0474 14.1512 19.6292 15.1608C19.211 16.1704 18.5981 17.0878 17.8254 17.8605C17.0526 18.6332 16.1353 19.2462 15.1257 19.6644C14.116 20.0826 13.034 20.2978 11.9412 20.2978Z" fill="#26CAD3"/>
</svg>
